<?xml version="1.0" standalone="no"?>
<!DOCTYPE svg PUBLIC "-//W3C//DTD SVG 20010904//EN"
 "http://www.w3.org/TR/2001/REC-SVG-20010904/DTD/svg10.dtd">
<svg version="1.0" xmlns="http://www.w3.org/2000/svg"
 width="200.000000pt" height="200.000000pt" viewBox="0 0 200.000000 200.000000"
 preserveAspectRatio="xMidYMid meet">
<metadata>
Created by potrace 1.16, written by Peter Selinger 2001-2019
</metadata>
<g transform="translate(0.000000,200.000000) scale(0.100000,-0.100000)"
fill="#000000" stroke="none">
<path d="M824 1990 c-406 -73 -724 -385 -808 -794 -20 -96 -21 -298 -1 -391
25 -116 64 -220 115 -305 151 -251 364 -412 635 -478 98 -24 372 -24 470 0
380 93 669 395 749 781 21 99 21 294 0 394 -77 373 -343 662 -709 769 -76 22
-114 27 -245 30 -85 1 -178 -1 -206 -6z m264 -346 c207 -86 180 -396 -39 -443
-222 -48 -373 222 -216 388 64 67 171 90 255 55z m-261 -474 c59 -37 102 -50
173 -50 71 0 114 13 173 50 55 35 65 32 117 -27 44 -50 89 -149 97 -212 l6
-51 -393 0 -393 0 7 53 c9 71 67 186 116 231 22 20 42 36 45 36 2 0 26 -14 52
-30z m-298 -494 c7 -5 16 -5 20 0 8 12 48 11 60 -1 4 -6 11 -29 14 -52 5 -42
4 -43 -24 -43 -27 0 -28 2 -26 38 1 27 -2 37 -13 37 -11 0 -15 -10 -14 -37 1
-36 -1 -38 -28 -38 -28 0 -29 2 -23 30 8 35 0 51 -21 43 -12 -4 -14 -14 -9
-39 6 -33 5 -34 -30 -34 -19 0 -35 5 -35 10 0 6 5 10 11 10 8 0 10 14 6 41 -5
41 -5 41 24 37 16 -3 29 -1 29 3 0 9 41 6 59 -5z"/>
</g>
</svg>
