<?xml version="1.0" standalone="no"?>
<!DOCTYPE svg PUBLIC "-//W3C//DTD SVG 20010904//EN"
 "http://www.w3.org/TR/2001/REC-SVG-20010904/DTD/svg10.dtd">
<svg version="1.0" xmlns="http://www.w3.org/2000/svg"
 width="200.000000pt" height="200.000000pt" viewBox="0 0 200.000000 200.000000"
 preserveAspectRatio="xMidYMid meet">

<g transform="translate(0.000000,200.000000) scale(0.100000,-0.100000)"
fill="#000000" stroke="none">
<path d="M830 1985 c-275 -52 -501 -197 -652 -418 -362 -530 -145 -1250 452
-1495 166 -68 399 -88 580 -49 219 47 424 174 565 349 249 312 294 720 117
1073 -104 210 -281 380 -483 466 -180 77 -410 106 -579 74z m258 -341 c207
-86 180 -396 -39 -443 -222 -48 -373 222 -216 388 64 67 171 90 255 55z m-261
-474 c59 -37 102 -50 173 -50 71 0 114 13 173 50 55 35 65 32 117 -27 44 -50
89 -149 97 -212 l6 -51 -393 0 -393 0 7 53 c9 71 67 186 116 231 22 20 42 36
45 36 2 0 26 -14 52 -30z m423 -481 c0 -36 4 -49 13 -46 6 2 11 13 9 23 -2 17
3 20 33 20 26 0 35 -4 35 -17 0 -9 -10 -20 -22 -24 -17 -5 -19 -8 -8 -12 20
-8 40 -29 40 -42 0 -20 -48 -12 -55 9 -4 12 -15 20 -28 20 -16 0 -18 -3 -9
-12 21 -21 13 -28 -28 -28 -22 0 -40 5 -40 10 0 6 5 10 11 10 8 0 10 22 7 70
-5 68 -5 70 18 70 22 0 24 -4 24 -51z m180 31 c0 -16 -7 -20 -30 -20 -23 0
-30 4 -30 20 0 16 7 20 30 20 23 0 30 -4 30 -20z m-1200 -20 c0 -21 -24 -28
-35 -10 -10 16 -45 12 -45 -5 0 -10 10 -15 31 -15 52 0 79 -48 42 -76 -10 -7
-39 -14 -64 -14 -38 0 -48 4 -52 20 -6 23 13 27 42 8 21 -13 56 -4 46 12 -3 5
-20 10 -36 10 -53 0 -79 48 -41 76 9 7 38 14 65 14 40 0 47 -3 47 -20z m128
-23 c6 -5 12 -21 12 -37 0 -16 5 -32 10 -35 25 -16 5 -24 -52 -22 -56 2 -63 4
-66 24 -3 18 3 23 32 29 20 3 36 10 36 15 0 5 -13 6 -30 3 -23 -5 -30 -3 -30
9 0 8 6 17 13 20 18 6 60 3 75 -6z m171 -1 c7 -5 16 -5 20 0 8 12 48 11 60 -1
4 -6 11 -29 14 -52 5 -42 4 -43 -24 -43 -27 0 -28 2 -26 38 1 27 -2 37 -13 37
-11 0 -15 -10 -14 -37 1 -36 -1 -38 -28 -38 -28 0 -29 2 -23 30 8 35 0 51 -21
43 -12 -4 -14 -14 -9 -39 6 -33 5 -34 -30 -34 -19 0 -35 5 -35 10 0 6 5 10 11
10 8 0 10 14 6 41 -5 41 -5 41 24 37 16 -3 29 -1 29 3 0 9 41 6 59 -5z m211 5
c6 0 10 -7 10 -15 0 -14 -23 -16 -36 -3 -10 10 -24 9 -24 -2 0 -5 14 -14 31
-20 24 -8 30 -15 27 -33 -3 -20 -10 -23 -50 -26 -40 -3 -48 0 -48 14 0 13 6
15 30 11 17 -4 30 -2 30 3 0 5 -12 10 -27 12 -30 3 -42 30 -25 51 9 10 41 13
82 8z m143 -6 c12 -5 17 -18 17 -45 0 -41 -11 -50 -60 -50 -48 0 -60 9 -60 47
0 21 7 41 15 47 17 12 60 13 88 1z m179 1 c4 -6 8 -23 8 -38 0 -15 5 -30 10
-33 21 -13 9 -25 -25 -25 -33 0 -35 2 -29 25 8 33 -1 56 -21 49 -17 -7 -20
-39 -5 -49 22 -13 8 -25 -30 -25 -22 0 -40 5 -40 10 0 6 5 10 11 10 8 0 10 14
6 41 -5 41 -5 41 24 37 17 -3 32 -2 34 2 6 10 50 7 57 -4z m371 -48 l5 -48
-39 0 c-39 0 -52 13 -24 24 17 6 20 42 5 51 -18 11 -10 24 18 27 31 3 29 7 35
-54z m98 48 c28 17 49 11 49 -13 0 -16 -6 -23 -19 -23 -11 0 -21 6 -24 13 -3
8 -7 6 -12 -7 -5 -11 -3 -27 3 -37 17 -27 16 -29 -28 -29 -44 0 -45 1 -28 30
10 16 10 24 0 40 -6 11 -12 22 -12 24 0 9 45 11 51 2 4 -5 13 -5 20 0z m167 1
c6 -5 12 -21 12 -37 0 -16 5 -32 10 -35 25 -16 5 -24 -52 -22 -55 2 -63 4 -63
22 0 13 10 22 33 29 40 11 42 28 2 20 -23 -5 -30 -3 -30 9 0 22 60 31 88 14z
m115 0 c17 11 51 9 59 -2 4 -5 8 -22 8 -37 0 -15 5 -30 10 -33 21 -13 9 -25
-25 -25 -33 0 -35 2 -29 25 8 33 -1 56 -21 49 -17 -7 -20 -39 -5 -49 20 -13 9
-25 -22 -25 -33 0 -33 0 -33 50 0 42 3 50 20 52 11 2 22 0 23 -5 2 -4 9 -4 15
0z"/>
<path d="M300 610 c0 -5 4 -10 9 -10 6 0 13 5 16 10 3 6 -1 10 -9 10 -9 0 -16
-4 -16 -10z"/>
<path d="M820 630 c0 -25 4 -31 18 -28 11 2 17 12 17 28 0 16 -6 26 -17 28
-14 3 -18 -3 -18 -28z"/>
<path d="M1640 610 c0 -5 4 -10 9 -10 6 0 13 5 16 10 3 6 -1 10 -9 10 -9 0
-16 -4 -16 -10z"/>
</g>
</svg>
